<svg xmlns="http://www.w3.org/2000/svg" xmlns:xlink="http://www.w3.org/1999/xlink" width="1080" zoomAndPan="magnify" viewBox="0 0 810 225" height="300" preserveAspectRatio="xMidYMid meet" version="1.0"><defs><clipPath id="630abcd71b"><path d="M 810 192.824219 L 765 179.023438 C 720 165.226562 630 137.625 540 146.804688 C 450 156.210938 360 201.835938 270 206.625 C 180 211.414062 90 174.238281 0 156.042969 C -90 137.625 -180 137.625 -270 133.007812 C -360 128.613281 -450 119.039062 -540 137.625 C -630 156.210938 -720 201.835938 -810 206.625 C -900 211.414062 -990 174.238281 -1080 142.242188 C -1170 110.023438 -1260 82.425781 -1350 96.226562 C -1440 110.023438 -1530 165.226562 -1620 179.023438 C -1710 192.824219 -1800 165.226562 -1890 142.242188 C -1980 119.039062 -2070 101.011719 -2160 114.644531 C -2250 128.613281 -2340 174.238281 -2430 165.226562 C -2520 156.210938 -2610 91.4375 -2700 59.445312 C -2790 27.226562 -2880 27.226562 -2970 27.226562 C -3060 27.226562 -3150 27.226562 -3240 68.625 C -3330 110.023438 -3420 192.824219 -3510 211.242188 C -3600 229.4375 -3690 183.8125 -3780 165.226562 C -3870 146.636719 -3960 156.210938 -4050 179.023438 C -4140 201.835938 -4230 239.011719 -4320 225.042969 C -4410 211.414062 -4500 146.636719 -4590 133.007812 C -4680 119.039062 -4770 156.210938 -4860 174.40625 C -4950 192.824219 -5040 192.824219 -5130 202.007812 C -5220 211.414062 -5310 229.4375 -5400 202.007812 C -5490 174.238281 -5580 101.011719 -5625 64.007812 L -5670 27.226562 L -5670 -0.375 L -5625 -0.375 C -5580 -0.375 -5490 -0.375 -5400 -0.375 C -5310 -0.375 -5220 -0.375 -5130 -0.375 C -5040 -0.375 -4950 -0.375 -4860 -0.375 C -4770 -0.375 -4680 -0.375 -4590 -0.375 C -4500 -0.375 -4410 -0.375 -4320 -0.375 C -4230 -0.375 -4140 -0.375 -4050 -0.375 C -3960 -0.375 -3870 -0.375 -3780 -0.375 C -3690 -0.375 -3600 -0.375 -3510 -0.375 C -3420 -0.375 -3330 -0.375 -3240 -0.375 C -3150 -0.375 -3060 -0.375 -2970 -0.375 C -2880 -0.375 -2790 -0.375 -2700 -0.375 C -2610 -0.375 -2520 -0.375 -2430 -0.375 C -2340 -0.375 -2250 -0.375 -2160 -0.375 C -2070 -0.375 -1980 -0.375 -1890 -0.375 C -1800 -0.375 -1710 -0.375 -1620 -0.375 C -1530 -0.375 -1440 -0.375 -1350 -0.375 C -1260 -0.375 -1170 -0.375 -1080 -0.375 C -990 -0.375 -900 -0.375 -810 -0.375 C -720 -0.375 -630 -0.375 -540 -0.375 C -450 -0.375 -360 -0.375 -270 -0.375 C -180 -0.375 -90 -0.375 0 -0.375 C 90 -0.375 180 -0.375 270 -0.375 C 360 -0.375 450 -0.375 540 -0.375 C 630 -0.375 720 -0.375 765 -0.375 L 810 -0.375 Z M 810 192.824219 " clip-rule="nonzero"/></clipPath><linearGradient x1="0" gradientTransform="matrix(-6480, 0.000000000000793571, -0.00000000000002798, -228.47385, 810, 228.098842)" y1="0.998359" x2="0" gradientUnits="userSpaceOnUse" y2="0.0135632" id="354d88e826"><stop stop-opacity="1" stop-color="rgb(55.703735%, 8.224487%, 21.618652%)" offset="0"/><stop stop-opacity="1" stop-color="rgb(55.728149%, 8.34198%, 21.708679%)" offset="0.015625"/><stop stop-opacity="1" stop-color="rgb(55.775452%, 8.576965%, 21.888733%)" offset="0.03125"/><stop stop-opacity="1" stop-color="rgb(55.822754%, 8.811951%, 22.068787%)" offset="0.046875"/><stop stop-opacity="1" stop-color="rgb(55.870056%, 9.048462%, 22.24884%)" offset="0.0625"/><stop stop-opacity="1" stop-color="rgb(55.918884%, 9.283447%, 22.428894%)" offset="0.078125"/><stop stop-opacity="1" stop-color="rgb(55.966187%, 9.518433%, 22.608948%)" offset="0.09375"/><stop stop-opacity="1" stop-color="rgb(56.013489%, 9.754944%, 22.789001%)" offset="0.109375"/><stop stop-opacity="1" stop-color="rgb(56.060791%, 9.989929%, 22.969055%)" offset="0.125"/><stop stop-opacity="1" stop-color="rgb(56.109619%, 10.224915%, 23.149109%)" offset="0.140625"/><stop stop-opacity="1" stop-color="rgb(56.156921%, 10.461426%, 23.329163%)" offset="0.15625"/><stop stop-opacity="1" stop-color="rgb(56.204224%, 10.696411%, 23.509216%)" offset="0.171875"/><stop stop-opacity="1" stop-color="rgb(56.253052%, 10.931396%, 23.68927%)" offset="0.1875"/><stop stop-opacity="1" stop-color="rgb(56.300354%, 11.166382%, 23.869324%)" offset="0.203125"/><stop stop-opacity="1" stop-color="rgb(56.347656%, 11.402893%, 24.049377%)" offset="0.21875"/><stop stop-opacity="1" stop-color="rgb(56.394958%, 11.637878%, 24.229431%)" offset="0.234375"/><stop stop-opacity="1" stop-color="rgb(56.443787%, 11.872864%, 24.409485%)" offset="0.25"/><stop stop-opacity="1" stop-color="rgb(56.491089%, 12.109375%, 24.589539%)" offset="0.265625"/><stop stop-opacity="1" stop-color="rgb(56.538391%, 12.34436%, 24.769592%)" offset="0.28125"/><stop stop-opacity="1" stop-color="rgb(56.585693%, 12.579346%, 24.949646%)" offset="0.296875"/><stop stop-opacity="1" stop-color="rgb(56.634521%, 12.814331%, 25.1297%)" offset="0.3125"/><stop stop-opacity="1" stop-color="rgb(56.681824%, 13.050842%, 25.309753%)" offset="0.328125"/><stop stop-opacity="1" stop-color="rgb(56.729126%, 13.285828%, 25.489807%)" offset="0.34375"/><stop stop-opacity="1" stop-color="rgb(56.776428%, 13.520813%, 25.669861%)" offset="0.359375"/><stop stop-opacity="1" stop-color="rgb(56.825256%, 13.757324%, 25.849915%)" offset="0.375"/><stop stop-opacity="1" stop-color="rgb(56.872559%, 13.99231%, 26.029968%)" offset="0.390625"/><stop stop-opacity="1" stop-color="rgb(56.919861%, 14.227295%, 26.210022%)" offset="0.40625"/><stop stop-opacity="1" stop-color="rgb(56.967163%, 14.46228%, 26.38855%)" offset="0.421875"/><stop stop-opacity="1" stop-color="rgb(57.015991%, 14.698792%, 26.568604%)" offset="0.4375"/><stop stop-opacity="1" stop-color="rgb(57.063293%, 14.933777%, 26.748657%)" offset="0.453125"/><stop stop-opacity="1" stop-color="rgb(57.110596%, 15.168762%, 26.928711%)" offset="0.46875"/><stop stop-opacity="1" stop-color="rgb(57.157898%, 15.405273%, 27.108765%)" offset="0.484375"/><stop stop-opacity="1" stop-color="rgb(57.206726%, 15.640259%, 27.288818%)" offset="0.5"/><stop stop-opacity="1" stop-color="rgb(57.254028%, 15.875244%, 27.468872%)" offset="0.515625"/><stop stop-opacity="1" stop-color="rgb(57.301331%, 16.110229%, 27.648926%)" offset="0.53125"/><stop stop-opacity="1" stop-color="rgb(57.350159%, 16.346741%, 27.828979%)" offset="0.546875"/><stop stop-opacity="1" stop-color="rgb(57.397461%, 16.581726%, 28.009033%)" offset="0.5625"/><stop stop-opacity="1" stop-color="rgb(57.444763%, 16.816711%, 28.189087%)" offset="0.578125"/><stop stop-opacity="1" stop-color="rgb(57.492065%, 17.053223%, 28.369141%)" offset="0.59375"/><stop stop-opacity="1" stop-color="rgb(57.540894%, 17.288208%, 28.549194%)" offset="0.609375"/><stop stop-opacity="1" stop-color="rgb(57.588196%, 17.523193%, 28.729248%)" offset="0.625"/><stop stop-opacity="1" stop-color="rgb(57.635498%, 17.759705%, 28.909302%)" offset="0.640625"/><stop stop-opacity="1" stop-color="rgb(57.6828%, 17.99469%, 29.089355%)" offset="0.65625"/><stop stop-opacity="1" stop-color="rgb(57.731628%, 18.229675%, 29.269409%)" offset="0.671875"/><stop stop-opacity="1" stop-color="rgb(57.778931%, 18.464661%, 29.449463%)" offset="0.6875"/><stop stop-opacity="1" stop-color="rgb(57.826233%, 18.701172%, 29.629517%)" offset="0.703125"/><stop stop-opacity="1" stop-color="rgb(57.873535%, 18.936157%, 29.80957%)" offset="0.71875"/><stop stop-opacity="1" stop-color="rgb(57.922363%, 19.171143%, 29.989624%)" offset="0.734375"/><stop stop-opacity="1" stop-color="rgb(57.969666%, 19.407654%, 30.169678%)" offset="0.75"/><stop stop-opacity="1" stop-color="rgb(58.016968%, 19.642639%, 30.349731%)" offset="0.765625"/><stop stop-opacity="1" stop-color="rgb(58.06427%, 19.877625%, 30.529785%)" offset="0.78125"/><stop stop-opacity="1" stop-color="rgb(58.113098%, 20.11261%, 30.709839%)" offset="0.796875"/><stop stop-opacity="1" stop-color="rgb(58.1604%, 20.349121%, 30.889893%)" offset="0.8125"/><stop stop-opacity="1" stop-color="rgb(58.207703%, 20.584106%, 31.069946%)" offset="0.828125"/><stop stop-opacity="1" stop-color="rgb(58.255005%, 20.819092%, 31.25%)" offset="0.84375"/><stop stop-opacity="1" stop-color="rgb(58.303833%, 21.055603%, 31.430054%)" offset="0.859375"/><stop stop-opacity="1" stop-color="rgb(58.351135%, 21.290588%, 31.610107%)" offset="0.875"/><stop stop-opacity="1" stop-color="rgb(58.398438%, 21.525574%, 31.790161%)" offset="0.890625"/><stop stop-opacity="1" stop-color="rgb(58.447266%, 21.760559%, 31.970215%)" offset="0.90625"/><stop stop-opacity="1" stop-color="rgb(58.494568%, 21.99707%, 32.150269%)" offset="0.921875"/><stop stop-opacity="1" stop-color="rgb(58.54187%, 22.232056%, 32.330322%)" offset="0.9375"/><stop stop-opacity="1" stop-color="rgb(58.589172%, 22.467041%, 32.510376%)" offset="0.953125"/><stop stop-opacity="1" stop-color="rgb(58.638%, 22.703552%, 32.69043%)" offset="0.96875"/><stop stop-opacity="1" stop-color="rgb(58.685303%, 22.938538%, 32.870483%)" offset="0.984375"/><stop stop-opacity="1" stop-color="rgb(58.732605%, 23.173523%, 33.050537%)" offset="1"/></linearGradient></defs><g clip-path="url(#630abcd71b)"><rect x="-81" fill="url(#354d88e826)" width="972" y="-22.5" height="270"/></g></svg>